<?xml version="1.0" encoding="UTF-8" standalone="no"?>
<svg width="202px" height="75px" viewBox="0 0 202 75" version="1.1" xmlns="http://www.w3.org/2000/svg" xmlns:xlink="http://www.w3.org/1999/xlink" xmlns:sketch="http://www.bohemiancoding.com/sketch/ns">
    <title>Slice 1</title>
    <description>Created with Sketch (http://www.bohemiancoding.com/sketch)</description>
    <defs/>
    <g id="Page-1" stroke="none" stroke-width="1" fill="none" fill-rule="evenodd" sketch:type="MSPage">
        <path d="M178.425357,66.2173314 C192.553662,60.970698 201.910229,46.5977311 201.478235,36.9746704 C201.897851,27.6257433 192.328382,13.4858273 177.917857,8.13387279 C175.921278,7.39214344 174.601778,6.38001527 174.075711,5.24613293 C177.15537,5.05640559 179.432931,4.63810907 180.381089,3.75595161 C181.035888,3.14718079 181.013607,2.37781399 180.315485,1.46876603 C179.24726,0.0794240424 177.745803,-0.040089247 176.941229,0.00846302681 C175.105565,0.125735442 173.340455,1.36120407 172.745071,2.94624907 C172.542071,3.48555279 172.480181,4.01888084 172.550735,4.53652278 C169.787955,4.64109691 166.507772,4.61121858 163.277101,4.58134026 C160.941364,4.56042544 158.527644,4.53652278 156.191906,4.56117239 C147.439388,4.6448317 54.0531989,4.6448317 45.3006806,4.56117239 C42.9661806,4.53652278 40.5524611,4.56042544 38.2154855,4.58134026 C34.9860525,4.61121858 31.7046318,4.64109691 28.9430891,4.53652278 C29.013644,4.01888084 28.9517538,3.48555279 28.7475159,2.94624907 C28.1533696,1.36120407 26.3882599,0.125735442 24.5525952,0.00846302681 C23.748022,-0.040089247 22.2465647,0.0794240424 21.1783391,1.46876603 C20.4789794,2.37781399 20.4579367,3.14718079 21.1127355,3.75595161 C22.060894,4.63810907 24.3372172,5.05640559 27.4181135,5.24613293 C26.8908086,6.38001527 25.5713086,7.39214344 23.5759672,8.13387279 C9.16420497,13.4858273 -0.404026735,27.6257433 0.0143513136,36.9746704 C-0.417642589,46.5977311 8.94016229,60.970698 23.0672294,66.2173314 C25.0638086,66.9590608 26.3833086,67.9711889 26.9106135,69.1050713 C23.830955,69.2947986 21.5521562,69.7130951 20.6039977,70.5945056 C19.9504367,71.2032765 19.9714794,71.9733902 20.6708391,72.8824382 C21.6214733,74.1194007 22.917455,74.3517047 23.7566867,74.3517047 C23.8594245,74.3517047 23.9559733,74.3487168 24.0450952,74.3427412 C25.8807599,74.2254688 27.6446318,72.9900001 28.2400159,71.4049551 C28.4430159,70.8656514 28.506144,70.3323234 28.4355891,69.8146814 C31.195894,69.7101073 34.4773147,69.7399856 37.7079855,69.7698639 C40.0437233,69.7907788 42.4599184,69.8131875 44.7931806,69.7900318 C53.6372964,69.7048786 84.3274306,69.6697716 100.746912,69.6563263 C117.166394,69.6697716 147.856528,69.7048786 156.699406,69.7900318 C159.032668,69.8131875 161.448864,69.7907788 163.785839,69.7698639 C167.015272,69.7399856 170.297931,69.7101073 173.058235,69.8146814 C172.987681,70.3323234 173.049571,70.8656514 173.252571,71.4049551 C173.847955,72.9900001 175.613065,74.2254688 177.448729,74.3427412 C177.536614,74.3487168 177.633162,74.3517047 177.737138,74.3517047 C178.57637,74.3517047 179.872351,74.1194007 180.822985,72.8824382 C181.521107,71.9733902 181.543388,71.2032765 180.888589,70.5945056 C179.940431,69.7130951 177.66287,69.2947986 174.583211,69.1050713 C175.109278,67.9711889 176.430016,66.9590608 178.425357,66.2173314 C178.425357,66.2173314 176.430016,66.9590608 178.425357,66.2173314 L178.425357,66.2173314 L178.425357,66.2173314 Z M174.003918,3.11804942 C174.473046,1.86913555 175.793784,0.864476962 177.07615,0.783058533 C177.129376,0.779323743 177.181364,0.777829827 177.230876,0.777829827 C178.160467,0.777829827 178.781845,1.32385617 179.144522,1.79593366 C179.650784,2.45549763 179.701534,2.9582004 179.299248,3.33242639 C178.592461,3.98825556 176.553796,4.31766407 173.843004,4.47527222 C173.778638,4.03307305 173.830626,3.57817559 174.003918,3.11804942 C174.003918,3.11804942 173.830626,3.57817559 174.003918,3.11804942 L174.003918,3.11804942 L174.003918,3.11804942 Z M22.1945769,3.33242639 C21.7922903,2.9582004 21.8418025,2.45549763 22.3493025,1.79593366 C22.7119794,1.32385617 23.3321196,0.777829827 24.2617111,0.777829827 C24.3112233,0.777829827 24.3632111,0.779323743 24.4164367,0.783058533 C25.6988025,0.864476962 27.0195403,1.86913555 27.4899062,3.11804942 C27.6631989,3.57817559 27.7139489,4.03307305 27.6508208,4.47527222 C24.9387903,4.31766407 22.9001257,3.98825556 22.1945769,3.33242639 C22.1945769,3.33242639 22.9001257,3.98825556 22.1945769,3.33242639 L22.1945769,3.33242639 L22.1945769,3.33242639 Z M26.9824062,71.2324078 C26.5120403,72.4820687 25.1913025,73.4867272 23.9089367,73.5681457 C22.8704184,73.6301432 22.2230464,73.0527446 21.8405647,72.5545236 C21.3343025,71.8957066 21.2835525,71.3930038 21.6858391,71.0187778 C22.3926257,70.3629486 24.4300525,70.0335401 27.142083,69.875185 C27.2064489,70.3181312 27.1544611,70.7730286 26.9824062,71.2324078 C26.9824062,71.2324078 27.1544611,70.7730286 26.9824062,71.2324078 L26.9824062,71.2324078 L26.9824062,71.2324078 Z M179.806748,71.0187778 C180.209034,71.3930038 180.158284,71.8957066 179.652022,72.5545236 C179.26954,73.0527446 178.622168,73.6301432 177.584888,73.5681457 C176.302522,73.4867272 174.981784,72.4820687 174.511418,71.2324078 C174.338126,70.7730286 174.287376,70.3181312 174.350504,69.875185 C177.062534,70.0335401 179.101199,70.3629486 179.806748,71.0187778 C179.806748,71.0187778 179.101199,70.3629486 179.806748,71.0187778 L179.806748,71.0187778 L179.806748,71.0187778 Z M173.267424,69.039339 C170.505882,68.9302831 167.236839,68.9601614 163.766034,68.9907867 C161.438961,69.0124485 159.033906,69.0356042 156.720449,69.0117015 C149.536229,68.9422344 30.986705,68.9302831 28.2264001,69.039339 C27.6644367,67.6626953 26.120894,66.437684 23.7443086,65.5540327 C9.98486961,60.4440926 0.874625704,46.3967993 1.3053818,36.9858748 L0.659247655,36.9754173 L1.3053818,36.9649599 C0.887003753,27.828169 10.2076745,14.0124327 24.2518086,8.79717154 C26.6296318,7.91352016 28.1719367,6.68776199 28.7339001,5.31186524 C31.4917294,5.42092112 34.7644855,5.3910428 38.2352903,5.35967056 C40.5611257,5.33875573 42.9661806,5.31560003 45.2796379,5.33950269 C52.3190342,5.40672892 149.173553,5.40672892 156.212949,5.33950269 C158.526406,5.31560003 160.931461,5.33875573 163.257296,5.35967056 C166.729339,5.3910428 170.000857,5.42092112 172.759924,5.31186524 C173.32065,6.68776199 174.864193,7.91352016 177.240778,8.79717154 C191.284912,14.0124327 200.605583,27.828169 200.188443,36.9649599 L200.833339,36.9754173 L200.188443,36.9858748 C200.619199,46.3967993 191.508955,60.4440926 177.748278,65.5540327 C175.371693,66.437684 173.82815,67.6626953 173.267424,69.039339 L173.267424,69.039339 Z M173.267424,69.039339" id="Imported-Layers" fill="#D8D0BF" sketch:type="MSShapeGroup"/>
    </g>
</svg>